<svg xmlns="http://www.w3.org/2000/svg" viewBox="0 0 128 128">
<style>
	path {
		fill: #464646;
	}
	@media (prefers-color-scheme: dark) {
		path {
			fill: #fff5e7;
		}
	}
</style>
<path d="M71.2,54.4c10-0.1,18.2,3.7,25.2,10.3c4.9,4.6,9.8,9.2,14,14.5c5,6.3,6.9,18.5-1.5,25.4c-6,5-12.9,7.3-20.8,5.2
	c-1.5-0.4-2.9-0.9-4.3-1.5c-3.6-1.6-6.7-0.9-9.3,2c-2.9,3.2-6.3,5.7-9.8,7.9c-6.7,4.3-13.7,3.9-20.4,0.4c-6.4-3.4-8.9-9.4-8.6-16.5
	c0.3-6.2,0.7-12.5,2.3-18.5c2.4-9.2,6.5-17.5,14.4-23.4C58.1,56.1,64.4,54.1,71.2,54.4z M89.5,15c-3.9-5.7-9.1-9.4-16.3-8.2
	c-7,1.2-10.9,6-12.8,12.6c-1.8,6.5-0.9,12.8,2.3,18.7c5.1,9.4,15.9,12.5,23.5,6.8c5.3-4,7.2-9.7,7.3-16.2
	C93.6,23.7,92.3,19.1,89.5,15z M52.7,45.4c1.9-9.9-1.6-18-9.3-24c-4.7-3.7-10.3-5.1-16.2-2.5c-5.6,2.5-8.4,7.1-9.1,13
	c-0.9,7.9,1.7,14.7,7.3,20.3c3.5,3.6,7.9,5.5,11.1,5.6C45.4,57.7,51.3,52.9,52.7,45.4z M108.2,31.2C97.8,35.5,93,50.3,98.9,59.9
	c3.9,6.3,10.9,8.3,17.6,4.9c9.3-4.7,13.6-18.9,8.1-27.8c-2.5-4.1-6.3-6.8-11.4-6.8C111.4,30.2,109.8,30.6,108.2,31.2z M33.6,80.3
	c2-10.2-6.1-21.1-16.9-23.1C9.4,55.9,2.8,60.4,1.3,67.5C-1,78.8,9.2,91.1,20.7,91.1C27.4,91,32.3,87,33.6,80.3z"/>
</svg>
