<?xml version="1.0" encoding="UTF-8" standalone="no"?>
<!DOCTYPE svg PUBLIC "-//W3C//DTD SVG 1.1//EN" "http://www.w3.org/Graphics/SVG/1.1/DTD/svg11.dtd">
<svg xmlns="http://www.w3.org/2000/svg" version="1.1" viewBox="0.00 0.00 640.00 128.00">
<ellipse fill="#464646" cx="0.00" cy="0.00" transform="translate(22.91,16.84) rotate(83.2)" rx="11.90" ry="8.36"/>
<path fill="#464646" d="
  M 36.56 12.50
  C 38.27 -1.28 56.32 6.84 51.23 21.84
  C 49.62 26.60 46.42 30.67 41.39 25.88
  Q 35.58 20.34 36.56 12.50
  Z"
/>
<path fill="#464646" d="
  M 67.22 22.39
  C 77.72 35.68 55.12 41.07 54.81 26.46
  C 54.64 18.23 62.33 16.20 67.22 22.39
  Z"
/>
<path fill="#464646" d="
  M 421.81 57.47
  Q 421.60 79.56 421.80 88.44
  C 421.98 96.72 430.03 101.94 435.76 93.72
  A 1.26 1.25 29.2 0 1 437.31 93.29
  L 448.58 98.33
  A 1.67 1.66 -63.7 0 1 449.36 100.65
  Q 439.98 117.84 419.74 113.06
  C 408.93 110.51 404.13 99.18 403.85 89.06
  Q 403.43 73.35 403.66 57.63
  Q 403.67 57.00 403.04 57.00
  L 393.19 57.00
  A 2.02 2.01 0.7 0 1 391.17 54.94
  L 391.48 42.12
  A 1.15 1.15 0.0 0 1 392.63 41.00
  L 403.11 41.00
  Q 403.73 41.00 403.73 40.39
  L 403.76 21.28
  A 1.53 1.52 -90.0 0 1 405.28 19.75
  L 420.00 19.75
  A 1.75 1.75 0.0 0 1 421.75 21.50
  L 421.75 40.50
  A 0.50 0.50 0.0 0 0 422.25 41.00
  L 439.00 41.00
  A 1.50 1.50 0.0 0 1 440.50 42.50
  L 440.50 55.50
  A 1.50 1.50 0.0 0 1 439.00 57.00
  L 422.28 57.00
  Q 421.81 57.00 421.81 57.47
  Z"
/>
<path fill="#464646" d="
  M 475.93 91.25
  C 476.54 98.16 485.70 100.31 489.32 93.78
  A 1.33 1.32 -63.4 0 1 491.01 93.21
  L 502.23 98.22
  A 1.71 1.70 24.3 0 1 503.09 100.48
  C 497.82 112.05 485.66 116.30 473.70 112.94
  C 461.27 109.45 457.92 98.52 457.67 86.94
  Q 457.36 72.25 457.54 57.55
  Q 457.55 57.00 457.00 57.00
  L 446.53 57.00
  A 1.29 1.28 89.8 0 1 445.25 55.72
  L 445.25 42.50
  A 1.50 1.50 0.0 0 1 446.75 41.00
  L 457.00 41.00
  A 0.50 0.50 0.0 0 0 457.50 40.50
  L 457.50 21.75
  A 2.00 2.00 0.0 0 1 459.50 19.75
  L 474.24 19.75
  A 1.32 1.31 89.6 0 1 475.55 21.05
  L 475.83 40.25
  A 0.68 0.67 89.6 0 0 476.50 40.92
  L 493.22 40.94
  A 1.03 1.03 0.0 0 1 494.25 41.97
  L 494.25 55.97
  A 1.03 1.03 0.0 0 1 493.22 57.00
  L 476.48 57.00
  Q 476.09 57.00 475.82 57.28
  Q 475.26 57.85 475.67 58.36
  Q 476.02 58.80 475.99 59.36
  Q 474.90 79.62 475.93 91.25
  Z"
/>
<path fill="#464646" d="
  M 14.60 30.64
  C 17.69 36.00 17.73 42.43 12.64 46.64
  C 8.45 50.10 3.16 44.28 1.59 40.67
  C 0.45 38.06 0.55 33.76 0.79 31.30
  C 1.68 22.26 11.34 24.97 14.60 30.64
  Z"
/>
<path fill="#464646" d="
  M 65.80 47.56
  Q 67.79 52.14 64.35 57.14
  C 60.71 62.43 54.49 62.19 48.61 62.37
  C 40.51 62.61 35.66 70.30 27.93 70.47
  C 17.28 70.70 15.99 61.29 18.72 53.21
  C 21.28 45.60 20.31 37.91 27.49 32.57
  C 37.39 25.20 51.67 35.98 59.68 41.42
  Q 64.57 44.74 65.80 47.56
  Z"
/>
<path fill="#464646" d="
  M 174.89 50.10
  Q 186.10 38.09 201.33 39.66
  C 212.31 40.80 220.49 46.52 223.25 57.17
  Q 224.14 60.62 224.20 69.33
  Q 224.33 89.95 224.22 111.05
  A 1.71 1.71 0.0 0 1 222.51 112.75
  L 207.99 112.75
  A 1.72 1.72 0.0 0 1 206.27 111.03
  Q 206.24 92.58 206.19 73.50
  C 206.18 66.08 204.75 58.26 196.57 56.29
  C 188.44 54.34 179.88 58.91 176.88 66.89
  Q 175.59 70.34 175.40 78.46
  Q 175.03 94.71 175.33 111.15
  A 1.57 1.57 0.0 0 1 173.76 112.75
  L 159.00 112.75
  A 1.50 1.50 0.0 0 1 157.50 111.25
  L 157.50 42.28
  A 1.28 1.28 0.0 0 1 158.78 41.00
  L 172.68 41.00
  A 1.50 1.50 0.0 0 1 174.18 42.43
  L 174.55 49.98
  Q 174.57 50.44 174.89 50.10
  Z"
/>
<path fill="#464646" d="
  M 289.84 112.06
  C 268.56 118.47 244.32 109.57 239.38 86.31
  C 236.61 73.24 239.64 58.50 249.59 49.27
  C 259.54 40.02 275.92 37.30 288.57 41.17
  Q 308.85 47.38 313.42 67.57
  C 317.69 86.39 308.97 106.29 289.84 112.06
  Z
  M 261.44 62.94
  C 253.85 73.81 255.75 92.83 270.15 96.85
  C 295.05 103.81 305.13 69.95 286.24 58.52
  C 278.82 54.03 266.76 55.32 261.44 62.94
  Z"
/>
<path fill="#464646" d="
  M 364.26 94.76
  C 365.98 90.57 361.34 88.17 358.26 87.23
  C 343.54 82.73 327.75 79.01 326.64 61.53
  C 325.42 42.44 350.12 36.77 364.33 40.89
  Q 377.89 44.82 382.30 58.28
  A 0.98 0.97 72.0 0 1 381.68 59.51
  L 368.00 63.97
  Q 366.95 64.31 366.39 63.35
  Q 360.62 53.30 348.94 56.14
  C 342.20 57.78 345.57 65.04 350.56 66.24
  C 359.83 68.47 371.85 71.32 377.83 77.69
  C 382.70 82.88 384.29 90.49 382.50 97.37
  C 378.57 112.44 359.88 115.78 346.55 113.55
  Q 329.68 110.73 323.54 94.76
  A 1.42 1.42 0.0 0 1 324.49 92.88
  L 337.75 89.24
  A 1.48 1.47 -22.2 0 1 339.42 89.93
  Q 344.24 98.38 353.97 98.06
  C 357.10 97.95 362.84 98.20 364.26 94.76
  Z"
/>
<path fill="#464646" d="
  M 547.92 113.91
  C 495.52 119.13 493.35 38.64 544.23 39.63
  C 568.14 40.09 578.66 58.99 577.71 80.64
  A 1.68 1.68 0.0 0 1 576.03 82.25
  L 527.48 82.25
  Q 526.88 82.25 526.96 82.84
  C 529.20 100.17 551.07 103.63 559.85 89.81
  A 1.72 1.71 25.4 0 1 561.86 89.10
  L 574.72 93.54
  A 1.56 1.56 0.0 0 1 575.58 95.77
  Q 566.51 112.06 547.92 113.91
  Z
  M 558.42 68.45
  C 554.61 50.75 530.91 51.66 527.17 68.31
  Q 527.01 69.00 527.72 69.00
  L 557.98 69.00
  Q 558.54 69.00 558.42 68.45
  Z"
/>
<path fill="#464646" d="
  M 608.78 50.91
  Q 618.50 38.27 634.75 40.28
  A 2.00 2.00 0.0 0 1 636.50 42.26
  L 636.50 56.98
  A 1.09 1.09 0.0 0 1 635.31 58.07
  C 630.81 57.68 626.16 57.30 622.03 58.51
  C 612.77 61.22 609.33 68.09 609.16 77.38
  Q 608.87 94.20 609.04 111.41
  A 1.33 1.33 0.0 0 1 607.71 112.75
  L 593.00 112.75
  A 1.75 1.75 0.0 0 1 591.25 111.00
  L 591.25 42.25
  A 1.25 1.25 0.0 0 1 592.50 41.00
  L 606.31 41.00
  A 1.63 1.63 0.0 0 1 607.94 42.56
  L 608.29 50.75
  Q 608.33 51.50 608.78 50.91
  Z"
/>
<path fill="#464646" d="
  M 105.97 60.06
  C 117.69 69.73 98.13 82.65 92.08 74.95
  C 86.66 68.05 98.70 54.06 105.97 60.06
  Z"
/>
<path fill="#464646" d="
  M 79.17 61.12
  C 85.61 62.94 86.45 71.15 82.24 75.43
  C 79.14 78.57 68.57 81.79 67.78 74.25
  C 67.14 68.15 71.88 59.06 79.17 61.12
  Z"
/>
<path fill="#464646" d="
  M 114.66 73.88
  C 118.57 72.28 123.81 74.55 125.39 78.70
  C 127.60 84.47 122.77 93.33 115.90 92.50
  C 108.24 91.58 107.84 76.66 114.66 73.88
  Z"
/>
<path fill="#464646" d="
  M 91.43 120.97
  C 87.92 118.01 86.49 113.19 81.89 111.09
  C 76.92 108.83 68.75 106.12 65.65 101.58
  C 61.16 95.00 64.28 89.39 70.95 86.69
  C 84.19 81.32 95.87 72.32 107.28 87.49
  C 111.14 92.62 108.07 99.90 108.88 106.03
  C 109.53 110.98 110.73 119.25 105.90 121.94
  Q 97.87 126.41 91.43 120.97
  Z"
/>
<path fill="#464646" d="
  M 115.40 101.04
  C 118.91 93.85 127.64 98.36 127.65 104.93
  Q 127.65 109.61 124.94 113.66
  C 121.53 118.74 114.88 116.62 114.00 110.80
  Q 113.20 105.55 115.40 101.04
  Z"
/>
</svg>
