<svg xmlns="http://www.w3.org/2000/svg" viewBox="0 0 640 128">
<path fill="#464646" d="M31.2,15.9c0.8,6.5-2.3,12.3-6.9,12.8c-4.6,0.5-8.9-4.3-9.7-10.8S16.9,5.6,21.5,5S30.4,9.3,31.2,15.9z
	 M36.6,12.5c1.7-13.8,19.8-5.7,14.7,9.3c-1.6,4.8-4.8,8.8-9.8,4C37.5,22.2,35.9,17.7,36.6,12.5z M67.2,22.4
	c10.5,13.3-12.1,18.7-12.4,4.1C54.6,18.2,62.3,16.2,67.2,22.4z M14.6,30.6c3.1,5.4,3.1,11.8-2,16c-4.2,3.5-9.5-2.4-11.1-6
	c-1.1-2.6-1-6.9-0.8-9.4C1.7,22.3,11.3,25,14.6,30.6z M65.8,47.6c1.3,3.1,0.8,6.2-1.5,9.6c-3.6,5.3-9.9,5-15.7,5.2
	c-8.1,0.2-13,7.9-20.7,8.1c-10.6,0.2-11.9-9.2-9.2-17.3c2.6-7.6,1.6-15.3,8.8-20.6c9.9-7.4,24.2,3.4,32.2,8.8
	C62.9,43.6,65,45.7,65.8,47.6z M106,60.1c11.7,9.7-7.8,22.6-13.9,14.9C86.7,68.1,98.7,54.1,106,60.1z M79.2,61.1
	c6.4,1.8,7.3,10,3.1,14.3c-3.1,3.1-13.7,6.4-14.5-1.2C67.1,68.2,71.9,59.1,79.2,61.1z M114.7,73.9c3.9-1.6,9.1,0.7,10.7,4.8
	c2.2,5.8-2.6,14.6-9.5,13.8C108.2,91.6,107.8,76.7,114.7,73.9z M91.4,121c-3.5-3-4.9-7.8-9.5-9.9c-5-2.3-13.1-5-16.2-9.5
	c-4.5-6.6-1.4-12.2,5.3-14.9c13.2-5.4,24.9-14.4,36.3,0.8c3.9,5.1,0.8,12.4,1.6,18.5c0.7,5,1.9,13.2-3,15.9
	C100.5,124.9,95.7,124.6,91.4,121z M115.4,101c3.5-7.2,12.2-2.7,12.2,3.9c0,3.1-0.9,6-2.7,8.7c-3.4,5.1-10.1,3-10.9-2.9
	C113.5,107.3,113.9,104,115.4,101z M221,32.6c-19.5,0-32.4,12.8-32.4,33.2v12.4c-2.7,4.8-8.7,12.5-16.5,13.3c2.2-3.5,2.4-9-2-12.5
	c-4.4-3.5-10.2-2.6-13.7-0.6c-5,2.9-7.4,9.3-6,16c1.4,6.3,6.7,13.5,17.6,14.5c1,0.1,1.9,0.1,2.9,0.1c6.3,0,12.4-2,18-5.7
	c0.7,1.9,2.4,3,4.8,3h8.2c3.3,0,5.2-1.9,5.2-5.2V65.8c0-9.5,5.4-15.2,13.8-15.2c8.2,0,13.7,5.7,13.7,15.2V101c0,3.3,1.9,5.2,5.2,5.2
	h8.2c3.3,0,5.2-1.9,5.2-5.2V65.8C253.3,45.4,240.2,32.6,221,32.6z M373.8,50.4c-6.7-5.4-9.1-8.3-9.4-12.1c-0.3-2.8-2.2-4-5.5-4
	h-10.1c-3.1,0-5.5,1.6-5.5,4.8c-0.1,8.9,5.7,15,15.8,23.2c8,6.3,12.8,10.3,12.8,15.8c0,6.4-5.8,10.4-15.5,10.4h-8
	c-3.6,0-5.5,2.1-4.5,5.7l2.2,7.7c0.9,2.8,2.8,4.3,5.8,4.3h4.8c19.8,0,34.2-10.1,34.2-28.3C391,66.8,385.5,59.8,373.8,50.4z
	 M434.6,88.5h-4.8c-8.2,0-11.9-4.2-11.9-12.2V52.1h15.2c3.3,0,5.2-1.9,5.2-5.2v-7.3c0-3.3-1.9-5.2-5.2-5.2h-15.2V24.2
	c0-3.3-1.9-5.2-5.2-5.2h-8.2c-3.3,0-5.2,1.9-5.2,5.2v54.6c0,16.5,9.2,27.4,27.5,27.4h4c3,0,4.9-1.5,5.8-4.5l2.2-7.4
	C439.9,90.6,438.3,88.5,434.6,88.5z M482.8,88.5H478c-8.2,0-11.9-4.2-11.9-12.2V52.1h15.2c3.3,0,5.2-1.9,5.2-5.2v-7.3
	c0-3.3-1.9-5.2-5.2-5.2h-15.2V24.2c0-3.3-1.9-5.2-5.2-5.2h-8.2c-3.3,0-5.2,1.9-5.2,5.2v54.6c0,16.5,9.2,27.4,27.5,27.4h4
	c3,0,4.9-1.5,5.8-4.5l2.2-7.4C488.2,90.6,486.5,88.5,482.8,88.5z M546.2,80.2h8.6c2.8,0,4.9-1,6-3.6c1.9-4,3.1-8.5,3.1-12.8
	c0-4.7-1.1-9.2-3.3-13.4l1.5-3.2c1-2.1-0.2-4.6-2.5-5.1l-6.9-1.5c-6-4.9-14.1-8-23.7-8c-8.8,0-16.6,2.7-22.7,7.4l-9.6,2.1
	c-2.3,0.5-3.5,3-2.5,5.1l2.2,4.7c-2.6,5.1-4,10.8-4,17.1c0,21.3,16.8,37.2,40.5,37.2H554c3.3,0,5.2-1.5,6.1-4.6l2.1-7.3
	c1-3.7-0.7-5.8-4.5-5.8h-22.6c-15.6,0-23.5-9.2-23.5-19.8c0-10.1,7.1-18.2,17.6-18.2c8.9,0,15.6,6.7,15.6,15.6c0,3-0.7,5.8-2.2,8.8
	C541,78.1,542.4,80.2,546.2,80.2z M606.4,34.3h-5.9c-17.6,0-26.8,10.9-26.8,27.1V101c0,3.3,1.9,5.2,5.2,5.2h8.2
	c3.3,0,5.2-1.9,5.2-5.2V62.8c0-7.1,3.9-10.7,10.3-10.7l5.5,0c8.1,0,12.5,5.3,12.7,12.5c0.1,1.9-0.7,3.7-1.8,5.1
	c-0.2-3-1.9-5.8-4.8-7.3c-5.5-2.7-12-0.9-15.4,4.3c-4,6.2-2.7,14.5,3.1,19.3c3.5,2.9,7.7,4.4,12.1,4.4c3.1,0,6.4-0.8,9.5-2.3
	c9.1-4.4,15.1-14.1,14.8-24.1C637.7,47.7,625.7,34.3,606.4,34.3z M336.9,38.1c0.5-4.6-4.4-7.7-8.4-5.4l-8.9,5.2
	c-5.8-3.4-12.7-5.3-20.5-5.3c-7.7,0-14.6,1.9-20.4,5.3l-8.9-5.2c-4-2.3-8.9,0.8-8.4,5.4l1.9,18.5c-1.5,4.2-2.3,8.9-2.3,13.8
	c0,21.4,15.8,37.7,38.1,37.7c22.5,0,38.3-16.2,38.3-37.7c0-4.9-0.8-9.5-2.3-13.8L336.9,38.1z M299.1,89.9
	c-11.8,0-19.2-9.1-19.2-19.6c0-10.6,7.4-19.6,19.2-19.6c11.9,0,19.3,9.1,19.3,19.6C318.4,80.8,311,89.9,299.1,89.9z"/>
</svg>
