<svg xmlns="http://www.w3.org/2000/svg" viewBox="0 0 510 128">
<path fill=" #464646"  d="M132.4,56.6c7.7-0.1,14,2.8,19.4,8c3.8,3.6,7.6,7.1,10.8,11.2c3.8,4.9,5.3,14.3-1.1,19.6c-4.6,3.8-10,5.6-16,4
	c-1.1-0.3-2.2-0.7-3.3-1.2c-2.8-1.2-5.2-0.7-7.2,1.5c-2.2,2.4-4.9,4.4-7.6,6.1c-5.1,3.3-10.6,3-15.7,0.3c-4.9-2.6-6.9-7.3-6.6-12.7
	c0.2-4.8,0.5-9.6,1.7-14.3c1.8-7.1,5-13.5,11.1-18.1C122.3,57.9,127.2,56.4,132.4,56.6z M146.6,26.2c-3-4.4-7-7.2-12.6-6.3
	c-5.4,0.9-8.4,4.6-9.9,9.7c-1.4,5-0.7,9.9,1.8,14.4c3.9,7.2,12.3,9.7,18.1,5.2c4.1-3.1,5.5-7.5,5.6-12.5
	C149.7,32.9,148.7,29.3,146.6,26.2z M118.1,49.7c1.5-7.6-1.3-13.9-7.2-18.5c-3.6-2.8-8-4-12.5-2c-4.3,1.9-6.5,5.5-7,10
	c-0.7,6.1,1.3,11.3,5.6,15.7c2.7,2.8,6.1,4.3,8.6,4.3C112.5,59.1,117,55.4,118.1,49.7z M161,38.7c-8,3.3-11.8,14.7-7.2,22.1
	c3,4.9,8.4,6.4,13.6,3.8c7.2-3.6,10.5-14.6,6.3-21.5c-2-3.2-4.8-5.2-8.8-5.2C163.5,37.9,162.2,38.2,161,38.7z M103.4,76.6
	c1.5-7.8-4.7-16.3-13.1-17.8c-5.6-1-10.7,2.4-11.8,7.9c-1.8,8.7,6,18.2,14.9,18.2C98.6,84.9,102.4,81.8,103.4,76.6z M5,104.7h14.7
	V69.3c0-5.9,1.4-10.3,4.2-13.4c2.8-3.1,7-4.6,12.6-4.6c5.5,0,9.7,1.5,12.5,4.6c2.8,3.1,4.3,7.5,4.3,13.4v35.4h14.7V65.6
	c0-4.3-0.8-8.2-2.3-11.6c-1.6-3.4-3.7-6.3-6.5-8.7c-2.8-2.4-6.1-4.2-10-5.4c-3.9-1.2-8.1-1.9-12.7-1.9c-4.6,0-8.8,0.6-12.6,1.9
	c-3.8,1.2-7.2,3.1-10,5.4c-2.8,2.4-5,5.3-6.6,8.7C5.8,57.4,5,61.2,5,65.6V104.7z M185.3,98.5c0.5,0.4,1.6,1.1,3.4,1.9
	c1.7,0.9,4,1.7,6.8,2.6c2.8,0.9,6.1,1.7,9.9,2.4c3.8,0.7,8,1,12.7,1c9.6,0,17-1.9,22.2-5.8c5.1-3.9,7.7-9,7.7-15.5
	c0-5.8-2-10.1-5.9-13.1c-4-3-9.5-4.9-16.7-5.9l-13.2-1.7c-3.5-0.4-6.2-1.2-8.1-2.4c-1.9-1.2-2.8-2.9-2.8-5.1c0-5.3,5-7.9,15-7.9
	c3.6,0,6.8,0.3,9.6,0.8c2.8,0.6,5.1,1.2,7.1,1.9c2,0.7,3.6,1.5,4.7,2.2c1.2,0.7,1.9,1.3,2.3,1.6c0.3-0.1,0.6-0.3,1.2-0.7
	c0.5-0.4,1-0.9,1.5-1.5c0.5-0.6,0.9-1.3,1.3-2.1c0.4-0.8,0.6-1.7,0.6-2.7c0-3.2-2.5-5.8-7.4-7.8c-5-2-11.9-3-20.9-3
	c-5.3,0-9.9,0.5-13.6,1.6c-3.7,1.1-6.8,2.6-9.1,4.5c-2.3,1.9-4,4.1-5.1,6.5c-1.1,2.5-1.6,5.1-1.6,7.8c0,3.2,0.6,5.9,1.7,8.2
	c1.2,2.3,2.8,4.2,4.8,5.8c2.1,1.6,4.5,2.8,7.4,3.7c2.9,0.9,6.1,1.5,9.5,1.9l10.1,1.2c4.7,0.5,7.9,1.4,9.7,2.6
	c1.8,1.3,2.7,3.1,2.7,5.5c0,2.8-1.4,4.8-4.3,6c-2.8,1.2-6.5,1.7-11,1.7c-3.4,0-6.6-0.3-9.6-0.8c-2.9-0.5-5.5-1.1-7.8-1.9
	c-2.3-0.7-4.2-1.4-5.8-2.1c-1.6-0.7-2.6-1.2-3.2-1.7L185.3,98.5z M267,85.2c0,6.4,1.9,11.5,5.8,15.4c3.9,3.9,9.6,5.9,17.2,5.9
	c2.7,0,5.1-0.2,7.4-0.7c2.2-0.5,4.3-1.1,6.1-1.7c1.8-0.7,3.3-1.4,4.6-2.2c1.2-0.8,2.2-1.4,2.9-1.9l-5.9-9.8
	c-0.9,0.7-2.5,1.4-4.7,2.2c-2.2,0.8-4.5,1.2-7,1.2c-1.6,0-3-0.2-4.5-0.5c-1.4-0.3-2.7-0.9-3.7-1.8c-1.1-0.9-1.9-2-2.5-3.4
	c-0.6-1.4-0.9-3.3-0.9-5.5V53.4h24.8c0.3-0.5,0.6-1.4,1-2.6c0.4-1.2,0.6-2.6,0.6-4.1c0-2.2-0.6-3.9-1.7-5.1c-1.2-1.2-3.2-1.7-6-1.7
	h-18.7V22.9c-0.4-0.2-1.3-0.5-2.6-0.8c-1.3-0.4-2.8-0.6-4.3-0.6c-2.4,0-4.3,0.5-5.7,1.6c-1.4,1.1-2.1,2.8-2.1,5.2V85.2z M325.4,85.2
	c0,6.4,1.9,11.5,5.8,15.4c3.9,3.9,9.6,5.9,17.2,5.9c2.7,0,5.1-0.2,7.4-0.7c2.2-0.5,4.3-1.1,6.1-1.7c1.8-0.7,3.3-1.4,4.6-2.2
	c1.2-0.8,2.2-1.4,2.9-1.9l-5.9-9.8c-0.9,0.7-2.5,1.4-4.7,2.2c-2.2,0.8-4.5,1.2-7,1.2c-1.6,0-3-0.2-4.5-0.5c-1.4-0.3-2.7-0.9-3.7-1.8
	c-1.1-0.9-1.9-2-2.5-3.4c-0.6-1.4-0.9-3.3-0.9-5.5V53.4H365c0.3-0.5,0.6-1.4,1-2.6c0.4-1.2,0.6-2.6,0.6-4.1c0-2.2-0.6-3.9-1.7-5.1
	c-1.2-1.2-3.2-1.7-6-1.7h-18.7V22.9c-0.4-0.2-1.3-0.5-2.6-0.8c-1.3-0.4-2.8-0.6-4.3-0.6c-2.4,0-4.3,0.5-5.7,1.6
	c-1.4,1.1-2.1,2.8-2.1,5.2V85.2z M435.6,89.6c-0.5,0.3-1.3,0.6-2.4,1.2c-1.1,0.5-2.4,1-3.9,1.6c-1.5,0.5-3.2,0.9-5.1,1.3
	c-1.9,0.3-4,0.5-6.2,0.5c-6.6,0-11.7-1.4-15.3-4.1c-3.6-2.7-5.7-6.3-6.4-10.7c1.7,0.1,3.3,0.2,4.8,0.2c1.5,0,3.1,0.1,4.8,0.1
	c7.4,0,13.5-0.5,18.4-1.5c4.8-1,8.7-2.4,11.5-4.1c2.8-1.8,4.8-3.9,5.9-6.3c1.1-2.5,1.7-5.2,1.7-8.2c0-2.9-0.6-5.7-1.8-8.3
	c-1.2-2.6-3-4.8-5.4-6.8c-2.4-1.9-5.3-3.5-8.7-4.7c-3.4-1.2-7.4-1.7-11.9-1.7c-5.1,0-9.8,0.8-14,2.5c-4.3,1.7-8,4.1-11.1,7.1
	c-3.1,3.1-5.6,6.7-7.4,11c-1.8,4.3-2.6,9-2.6,14.2c0,5.4,0.9,10.2,2.7,14.4c1.8,4.2,4.3,7.7,7.4,10.6c3.1,2.9,6.8,5.1,11,6.5
	c4.2,1.5,8.7,2.2,13.5,2.2c3.4,0,6.6-0.3,9.5-0.8c2.9-0.5,5.4-1.1,7.6-1.8c2.2-0.7,4-1.4,5.5-2.2c1.5-0.8,2.5-1.4,3.2-1.8
	L435.6,89.6z M397.1,61.9c0.9-2.4,2.2-4.5,3.8-6.4c1.6-1.9,3.7-3.3,6.1-4.5c2.4-1.1,5.2-1.7,8.4-1.7c3.9,0,7.1,0.8,9.8,2.5
	c2.6,1.6,3.9,4.1,3.9,7.4c0,1.3-0.3,2.5-0.8,3.7c-0.5,1.2-1.6,2.3-3.2,3.2c-1.6,0.9-3.9,1.7-6.9,2.3c-2.9,0.6-6.8,0.9-11.5,0.9
	c-1.8,0-3.6,0-5.4,0c-1.8,0-3.7,0-5.7-0.1C395.7,66.8,396.2,64.3,397.1,61.9z M459.1,104.7h14.7V67.2c0-10.7,5-16,15.1-16
	c2.8,0,5.2,0.3,7.4,0.9c2.2,0.6,4,1.2,5.4,1.9c0.5-0.3,1.2-1.2,2-2.6c0.8-1.4,1.2-2.8,1.2-4.3c0-3.1-1.7-5.4-5.1-6.9
	c-3.4-1.5-7.8-2.3-13.2-2.3c-8.6,0-15.4,2.2-20.2,6.5c-4.9,4.4-7.3,10.5-7.3,18.4V104.7z"/>
</svg>
