<svg viewBox="0 0 128 128" xmlns="http://www.w3.org/2000/svg" fill-rule="evenodd" clip-rule="evenodd" stroke-linejoin="round" stroke-miterlimit="2"><ellipse rx="11.9" ry="8.36" fill="#464646" transform="rotate(83.2 2.164 21.007)"/><path d="M36.417 12.031c1.71-13.78 19.76-5.66 14.67 9.34-1.61 4.76-4.81 8.83-9.84 4.04-3.873-3.693-5.483-8.153-4.83-13.38zM67.077 21.921c10.5 13.29-12.1 18.68-12.41 4.07-.17-8.23 7.52-10.26 12.41-4.07zM14.457 30.171c3.09 5.36 3.13 11.79-1.96 16-4.19 3.46-9.48-2.36-11.05-5.97-1.14-2.61-1.04-6.91-.8-9.37.89-9.04 10.55-6.33 13.81-.66zM65.657 47.091c1.327 3.053.843 6.247-1.45 9.58-3.64 5.29-9.86 5.05-15.74 5.23-8.1.24-12.95 7.93-20.68 8.1-10.65.23-11.94-9.18-9.21-17.26 2.56-7.61 1.59-15.3 8.77-20.64 9.9-7.37 24.18 3.41 32.19 8.85 3.26 2.213 5.3 4.26 6.12 6.14zM105.827 59.591c11.72 9.67-7.84 22.59-13.89 14.89-5.42-6.9 6.62-20.89 13.89-14.89zM79.027 60.651c6.44 1.82 7.28 10.03 3.07 14.31-3.1 3.14-13.67 6.36-14.46-1.18-.64-6.1 4.1-15.19 11.39-13.13zM114.517 73.411c3.91-1.6 9.15.67 10.73 4.82 2.21 5.77-2.62 14.63-9.49 13.8-7.66-.92-8.06-15.84-1.24-18.62z" fill="#464646" fill-rule="nonzero"/><path d="M91.287 120.501c-3.51-2.96-4.94-7.78-9.54-9.88-4.97-2.26-13.14-4.97-16.24-9.51-4.49-6.58-1.37-12.19 5.3-14.89 13.24-5.37 24.92-14.37 36.33.8 3.86 5.13.79 12.41 1.6 18.54.65 4.95 1.85 13.22-2.98 15.91-5.353 2.98-10.177 2.657-14.47-.97zM115.257 100.571c3.51-7.19 12.24-2.68 12.25 3.89 0 3.12-.903 6.03-2.71 8.73-3.41 5.08-10.06 2.96-10.94-2.86-.533-3.5-.067-6.753 1.4-9.76z" fill="#464646" fill-rule="nonzero"/></svg>