<svg xmlns="http://www.w3.org/2000/svg" viewBox="0 0 640 128">
<path fill="#464646" d="M304.4,89.4c0,12.7-10.1,25.1-31.4,25.1c-7.5,0-14.7-1.2-22-3.5c-1.9-0.6-3-2.5-2.5-4.5l2-8.2
	c0.5-2.1,2.6-3.3,4.6-2.8c5.9,1.6,11.8,2.7,17.9,2.7c7.2,0,12.3-3.7,12.3-8.6c0-15.4-35.6-9.6-35.6-38.3c0-13.9,11.2-24.2,29.3-24.2
	c6.4,0,12.4,0.9,18.6,2.7c1.9,0.6,3.1,2.6,2.5,4.6l-2.2,8.5c-0.5,2-2.6,3.2-4.7,2.6c-4.7-1.3-9.2-2.3-14.3-2.3
	c-7.4,0-10.1,3.5-10.1,8C269,65.9,304.4,59.8,304.4,89.4z M350.6,95.5h-5.1c-8.8,0-12.8-4.5-12.8-13.1V56.3H349
	c3.5,0,5.6-2.1,5.6-5.6v-7.8c0-3.5-2.1-5.6-5.6-5.6h-16.3V26.4c0-3.5-2.1-5.6-5.6-5.6h-8.8c-3.5,0-5.6,2.1-5.6,5.6v58.8
	c0,17.8,9.9,29.5,29.6,29.5h4.3c3.2,0,5.3-1.6,6.2-4.8l2.4-8C356.4,97.8,354.6,95.5,350.6,95.5z M402.5,95.5h-5.1
	c-8.8,0-12.8-4.5-12.8-13.1V56.3h16.3c3.5,0,5.6-2.1,5.6-5.6v-7.8c0-3.5-2.1-5.6-5.6-5.6h-16.3V26.4c0-3.5-2.1-5.6-5.6-5.6h-8.8
	c-3.5,0-5.6,2.1-5.6,5.6v58.8c0,17.8,9.9,29.5,29.6,29.5h4.3c3.2,0,5.3-1.6,6.2-4.8l2.4-8C408.3,97.8,406.5,95.5,402.5,95.5z
	 M535.5,37.2h-6.4c-18.9,0-28.8,11.7-28.8,29.1V109c0,3.5,2.1,5.6,5.6,5.6h8.8c3.5,0,5.6-2.1,5.6-5.6V67.8c0-7.7,4.2-11.5,11-11.5
	l5.9,0c8.7,0,13.4,5.8,13.6,13.5c0.1,2-0.7,4-1.9,5.5c-0.2-3.2-2.1-6.3-5.2-7.8c-5.9-3-12.9-1-16.5,4.6c-4.4,6.7-2.9,15.6,3.3,20.8
	c3.7,3.1,8.3,4.7,13,4.7c3.4,0,6.8-0.8,10.2-2.5c9.8-4.8,16.2-15.2,15.9-25.9C569.2,51.6,556.2,37.2,535.5,37.2z M239.7,61.2
	c1.6,4.5,2.5,9.5,2.5,14.8c0,23.1-17,40.5-41.2,40.5c-24,0-41-17.5-41-40.5c0-5.3,0.9-10.3,2.5-14.8l-2-20c-0.5-4.9,4.8-8.3,9-5.8
	l9.6,5.6c6.2-3.7,13.6-5.7,21.9-5.7c8.3,0,15.8,2.1,22.1,5.8l9.6-5.6c4.3-2.5,9.5,0.9,9,5.8L239.7,61.2z M221.9,75.8
	c0-11.4-8-21.1-20.8-21.1c-12.7,0-20.7,9.8-20.7,21.1c0,11.4,8,21.1,20.7,21.1C213.9,97,221.9,87.2,221.9,75.8z M117.1,35.3
	c-11,0-20.1,3.8-26.2,10.6c-0.7,0.7-1.8,0.6-2.4-0.2c-1.5-2.3-2.9-6-2.5-10.9c0.1,0.1,0.3,0.2,0.5,0.3c4.2,2.9,9.9,2,12.9-2.1
	c3.2-4.4,3.4-10.1,0.4-14.6c-3.4-5.2-10.3-7.9-16.8-6.6c-7.6,1.5-13.2,7.8-15,16.9c-2.2,11.4,0.7,20,3.6,25.3
	c2.3,4.2,5.4,7.8,8.8,10.1c1.3,0.9,2,2.4,1.9,4c-0.1,1-0.1,1.9-0.1,2.9v38c0,3.1,2.5,5.6,5.6,5.6h8.8c3.1,0,5.6-2.5,5.6-5.6V71
	c0-10.2,5.8-16.3,14.9-16.3c8.8,0,14.7,6.1,14.7,16.3v38c0,3.1,2.5,5.6,5.6,5.6h8.8c3.1,0,5.6-2.5,5.6-5.6V71
	C151.8,49.1,137.7,35.3,117.1,35.3z M442.3,71.4v11.5c0,2.1,1.7,3.8,3.8,3.8h20.4c0.9,0,1.8-0.1,2.7-0.2c0.5,0.1,1,0.1,1.5,0.1h9.3
	c3,0,5.3-1.1,6.4-3.8c2.1-4.3,3.4-9.1,3.4-13.8c0-5-1.2-9.9-3.5-14.4l1.6-3.4c1.1-2.3-0.2-5-2.7-5.5l-7.4-1.6
	c-6.4-5.3-15.1-8.7-25.5-8.6c-9.5,0-17.8,2.9-24.4,8l-10.3,2.2c-2.5,0.5-3.8,3.2-2.7,5.5l2.4,5c-2.8,5.4-4.3,11.7-4.3,18.4
	c0,22.9,18.1,40,43.6,40h22.4c3.5,0,5.6-1.6,6.6-5l2.2-7.8c1.1-4-0.8-6.2-4.8-6.2h-24.3c-16.8,0-25.3-9.9-25.3-21.3
	c0-10.9,7.7-19.5,18.9-19.5c8.3,0,14.8,5.4,16.4,13h-22.7C444,67.7,442.3,69.4,442.3,71.4z"/>
</svg>
